<?xml version="1.0" encoding="utf-8"?>
<!-- Generator: Adobe Illustrator 27.5.0, SVG Export Plug-In . SVG Version: 6.00 Build 0)  -->
<svg version="1.1" xmlns="http://www.w3.org/2000/svg" xmlns:xlink="http://www.w3.org/1999/xlink" x="0px" y="0px"
	 viewBox="0 0 800 500" style="enable-background:new 0 0 800 500;" xml:space="preserve">
<g id="_x31_19">
	<g>
		<rect style="fill:#FFFFFF;" width="800" height="500"/>
		<g>
			<path style="fill:#2954C8;" d="M0,284.082l33.3-19.033c33.4-19.035,100-57.104,166.7-69.951
				c52.213-10.15,105.919-6.407,158.239-15.664c52.734-9.33,96.171-37.095,139.621-66.883
				c43.174-29.597,86.858-59.86,138.313-72.912c42.915-10.886,86.852-10.047,130.527-5.379l33.3,3.568v381.871
				c-167.715,0-335.43,0-503.145,0c-83.857,0-167.715,0-251.572,0c-4.4,0-45.283,0.473-45.283-0.545c0-4.412,0-8.826,0-13.239
				c0-18.427,0-36.854,0-55.28C0,328.451,0,306.267,0,284.082z"/>
			<path style="fill:#77A2EB;" d="M0,314.728l33.3-14.601c33.4-14.601,100-43.804,166.7-52.327
				c66.855-8.624,133.833,3.621,200,12.313c66.209,8.774,133.271,14.365,200,8.602c66.7-5.841,133.3-22.888,166.7-31.491l33.3-8.523
				v190.998c-266.667,0-533.333,0-800,0V314.728z"/>
			<path style="fill:#BCD4F7;" d="M0,297.365l33.3,5.289c33.4,5.208,100,15.785,166.7,14.995
				c66.879-0.791,133.087-12.944,200-12.944c66.83,0,133.117,12.16,200,10.261c66.7-1.815,133.3-17.601,166.7-25.493l33.3-7.893
				v135.752c-266.667,0-533.333,0-800,0V297.365z"/>
			<path style="fill:#FFFFFF;" d="M0,354.7l33.3-5c61.644-9.228,123.776-16.443,186.22-14.726
				c75.539,2.077,150.403,14.694,225.49,22.242C563.084,369.085,681.624,376.524,800,384.7v37.999c-266.667,0-533.333,0-800,0V354.7
				z"/>
		</g>
	</g>
</g>
<g id="Layer_1">
</g>
</svg>
