<svg id="visual" viewBox="0 0 900 600" width="900" height="600" xmlns="http://www.w3.org/2000/svg" xmlns:xlink="http://www.w3.org/1999/xlink" version="1.1"><rect x="0" y="0" width="900" height="600" fill="#ACC9CB"></rect><defs><linearGradient id="grad1_0" x1="33.3%" y1="100%" x2="100%" y2="0%"><stop offset="20%" stop-color="#acc9cb" stop-opacity="1"></stop><stop offset="80%" stop-color="#acc9cb" stop-opacity="1"></stop></linearGradient></defs><defs><linearGradient id="grad2_0" x1="0%" y1="100%" x2="66.7%" y2="0%"><stop offset="20%" stop-color="#acc9cb" stop-opacity="1"></stop><stop offset="80%" stop-color="#acc9cb" stop-opacity="1"></stop></linearGradient></defs><g transform="translate(900, 600)"><path d="M-351.5 0C-322.2 -37.6 -292.9 -75.1 -275.3 -114C-257.7 -152.9 -251.8 -193.2 -231.2 -231.2C-210.7 -269.3 -175.5 -305.1 -134.5 -324.8C-93.6 -344.5 -46.8 -348 0 -351.5L0 0Z" fill="#9bbabd"></path></g><g transform="translate(0, 0)"><path d="M351.5 0C344 44.1 336.4 88.2 321.5 133.2C306.6 178.1 284.3 224 248.6 248.6C212.9 273.2 163.8 276.5 120.2 290.1C76.5 303.7 38.3 327.6 0 351.5L0 0Z" fill="#9bbabd"></path></g></svg>