<svg id="visual" viewBox="0 0 450 900" width="450" height="900" xmlns="http://www.w3.org/2000/svg" xmlns:xlink="http://www.w3.org/1999/xlink" version="1.1"><rect width="450" height="900" fill="#8ba7a9"></rect><g><g transform="translate(41 745)"><path d="M8.1 -9.1C10.7 -7.4 13.3 -5.1 13.6 -2.5C14 0.1 12 2.9 10 5.1C7.9 7.3 5.9 8.8 2.9 11.4C-0.1 14 -3.9 17.7 -7.6 17.7C-11.3 17.7 -14.7 14.1 -15.1 10.3C-15.4 6.4 -12.6 2.4 -10.8 -0.9C-9.1 -4.1 -8.3 -6.5 -6.6 -8.4C-5 -10.2 -2.5 -11.5 0.1 -11.6C2.7 -11.7 5.4 -10.7 8.1 -9.1Z" fill="#9db9bc"></path></g><g transform="translate(186 374)"><path d="M1.2 -1.5C1.8 -0.9 2.7 -0.8 3.1 -0.3C3.5 0.2 3.4 1 3 1.9C2.7 2.7 2.2 3.6 1.4 3.8C0.7 4.1 -0.2 3.6 -1 3.2C-1.8 2.7 -2.3 2.2 -2.7 1.6C-3 0.9 -3.1 0.2 -2.7 -0.3C-2.4 -0.7 -1.6 -0.9 -1.1 -1.6C-0.6 -2.3 -0.3 -3.5 0 -3.5C0.3 -3.5 0.5 -2.2 1.2 -1.5Z" fill="#9db9bc"></path></g><g transform="translate(129 703)"><path d="M6.3 -8.9C8 -6.2 9 -4 10.9 -0.8C12.9 2.4 15.8 6.6 14.7 8.6C13.7 10.6 8.7 10.4 4.8 10.8C0.9 11.2 -1.9 12.1 -4.1 11.3C-6.3 10.5 -7.9 8 -10.3 5.2C-12.8 2.5 -16.1 -0.5 -15.9 -3C-15.7 -5.6 -12 -7.7 -8.7 -10.1C-5.5 -12.6 -2.7 -15.3 -0.2 -15C2.3 -14.8 4.7 -11.6 6.3 -8.9Z" fill="#9db9bc"></path></g><g transform="translate(95 387)"><path d="M12.1 -13.7C14.6 -12.4 14.5 -7.5 14 -3.5C13.4 0.5 12.4 3.5 11 6.7C9.6 10 7.9 13.4 4.6 16C1.4 18.6 -3.3 20.3 -6.5 18.8C-9.8 17.3 -11.5 12.4 -13.3 8.2C-15.1 3.9 -17.1 0.3 -15.9 -2.2C-14.8 -4.7 -10.4 -6 -7.3 -7.1C-4.1 -8.2 -2 -9 1.4 -10.7C4.9 -12.4 9.7 -14.9 12.1 -13.7Z" fill="#9db9bc"></path></g><g transform="translate(27 20)"><path d="M4.6 -7.3C5.7 -4.6 6.1 -2.9 6.1 -1.3C6 0.2 5.5 1.5 5.3 4.1C5 6.6 5.1 10.4 3.3 12.6C1.5 14.8 -2.2 15.5 -5.3 14.5C-8.4 13.4 -10.9 10.6 -11.6 7.6C-12.3 4.6 -11.1 1.4 -9.9 -1.1C-8.6 -3.6 -7.4 -5.4 -5.7 -8.1C-4.1 -10.7 -2 -14.1 -0.1 -13.9C1.8 -13.8 3.5 -10 4.6 -7.3Z" fill="#9db9bc"></path></g><g transform="translate(309 252)"><path d="M7 -8.5C9.2 -6.4 11.4 -4.4 12 -2C12.6 0.5 11.7 3.4 10.3 6C8.8 8.6 6.9 11 4.7 10.8C2.6 10.6 0.4 7.8 -1.2 6C-2.8 4.2 -3.7 3.5 -5.5 2.3C-7.3 1.1 -9.8 -0.5 -10.1 -2.2C-10.3 -3.9 -8.3 -5.7 -6.2 -7.8C-4.2 -9.9 -2.1 -12.4 0.1 -12.5C2.4 -12.7 4.7 -10.6 7 -8.5Z" fill="#9db9bc"></path></g><g transform="translate(27 319)"><path d="M2 -2.4C2.5 -2.1 2.5 -1.3 2.9 -0.3C3.3 0.6 4 1.7 3.9 2.8C3.9 3.8 3.1 5 2.1 5C1.1 5 0 3.9 -0.7 3.1C-1.4 2.3 -1.7 1.7 -1.8 1.2C-2 0.7 -1.9 0.2 -2.2 -0.8C-2.5 -1.8 -3.2 -3.2 -2.9 -3.5C-2.6 -3.8 -1.3 -2.9 -0.2 -2.6C0.8 -2.3 1.6 -2.6 2 -2.4Z" fill="#9db9bc"></path></g><g transform="translate(124 541)"><path d="M4 -3.4C6 -3 9.1 -2.6 10.3 -1.1C11.4 0.4 10.6 3 9.3 5.4C8 7.7 6.1 9.8 4.2 9.7C2.2 9.7 0.1 7.6 -1.5 6.1C-3.1 4.7 -4.2 3.9 -6 2.6C-7.7 1.3 -10.1 -0.4 -9.7 -1.6C-9.4 -2.7 -6.3 -3.2 -4.2 -3.6C-2.1 -4 -1.1 -4.2 0 -4.2C1 -4.1 1.9 -3.8 4 -3.4Z" fill="#9db9bc"></path></g><g transform="translate(205 266)"><path d="M4.3 -5.6C5.6 -4 6.8 -2.7 9.5 0.2C12.3 3.1 16.5 7.5 16.5 11.3C16.4 15 12 17.9 7.1 19.8C2.2 21.7 -3.2 22.6 -7.7 21C-12.3 19.5 -16.1 15.5 -16.5 11.3C-16.8 7 -13.7 2.6 -11.1 -0.2C-8.5 -2.9 -6.4 -4 -4.6 -5.5C-2.8 -7.1 -1.4 -9 0 -9C1.5 -9.1 2.9 -7.2 4.3 -5.6Z" fill="#9db9bc"></path></g><g transform="translate(409 433)"><path d="M7.7 -10.5C9.4 -7.7 9.9 -4.8 9.9 -2.1C9.9 0.5 9.4 2.8 8.6 5.8C7.9 8.8 6.9 12.5 4.9 13.2C2.8 13.9 -0.3 11.6 -3.2 10C-6.1 8.4 -8.8 7.5 -9.5 5.7C-10.3 3.9 -9.1 1.3 -9 -2C-8.9 -5.2 -9.8 -9 -8.5 -11.9C-7.2 -14.8 -3.6 -16.8 -0.3 -16.4C3 -16 5.9 -13.3 7.7 -10.5Z" fill="#9db9bc"></path></g><g transform="translate(148 161)"><path d="M2.6 -3.3C3.4 -2.5 4.1 -1.6 4 -0.9C3.8 -0.2 2.9 0.5 2.7 2C2.4 3.6 2.7 6 2.1 6.6C1.5 7.1 0 5.8 -1.7 5C-3.4 4.3 -5.2 4.2 -6.1 3.2C-6.9 2.3 -6.8 0.6 -6.2 -0.7C-5.5 -2 -4.3 -2.8 -3.1 -3.6C-2 -4.4 -1 -5.2 -0.1 -5.1C0.9 -5 1.8 -4.1 2.6 -3.3Z" fill="#9db9bc"></path></g><g transform="translate(269 339)"><path d="M9.5 -10.7C11.7 -9.5 12.4 -5.9 12 -2.9C11.7 0.2 10.4 2.7 9.4 6.4C8.5 10.2 7.9 15.1 6 15.3C4.1 15.5 0.9 11 -1.8 8.5C-4.5 6 -6.6 5.5 -7.8 4.1C-8.9 2.8 -9.2 0.6 -8.4 -1.1C-7.6 -2.7 -5.8 -3.6 -4.2 -4.9C-2.6 -6.2 -1.3 -7.8 1.2 -9.2C3.7 -10.7 7.3 -11.9 9.5 -10.7Z" fill="#9db9bc"></path></g><g transform="translate(66 576)"><path d="M8 -9.6C9.9 -7.9 10.8 -5 11.7 -1.7C12.7 1.5 13.7 5 12.5 7.4C11.3 9.7 7.9 11 4.6 11.8C1.3 12.6 -1.8 12.9 -4.3 12C-6.9 11 -9 8.7 -11.3 5.9C-13.6 3.1 -16.2 -0.1 -16.3 -3.5C-16.4 -6.9 -14.1 -10.4 -11 -11.9C-7.8 -13.4 -3.9 -12.8 -0.4 -12.2C3 -11.7 6 -11.3 8 -9.6Z" fill="#9db9bc"></path></g><g transform="translate(276 150)"><path d="M2.7 -2.8C4 -2.1 6.1 -1.8 6.4 -0.9C6.8 -0.1 5.5 1.2 4.6 2.5C3.6 3.8 3 5.2 1.8 6.2C0.6 7.1 -1.2 7.7 -2.3 7C-3.4 6.3 -3.7 4.3 -4.1 2.8C-4.5 1.3 -4.8 0.2 -4.6 -0.8C-4.4 -1.7 -3.6 -2.5 -2.7 -3.3C-1.8 -4.1 -0.9 -5 -0.1 -4.9C0.7 -4.8 1.3 -3.6 2.7 -2.8Z" fill="#9db9bc"></path></g><g transform="translate(335 525)"><path d="M4.6 -5.9C5.4 -4.7 5.3 -2.8 6.1 -0.7C7 1.4 8.8 3.8 8.4 5.2C8 6.5 5.3 6.9 2.9 7.8C0.4 8.7 -1.9 10.1 -4.2 9.9C-6.5 9.8 -8.8 8.1 -9.4 6C-10 3.8 -8.9 1.2 -7.7 -0.6C-6.5 -2.5 -5.2 -3.5 -3.9 -4.6C-2.6 -5.7 -1.3 -6.7 0.3 -7.1C1.9 -7.4 3.7 -7 4.6 -5.9Z" fill="#9db9bc"></path></g><g transform="translate(118 871)"><path d="M5.8 -6C7.6 -5.4 9.4 -3.7 9.9 -1.6C10.5 0.5 9.9 2.9 8.7 5C7.5 7.1 5.7 8.8 3.4 10C1.1 11.1 -1.6 11.5 -3.2 10.3C-4.8 9.1 -5.2 6.1 -6.1 3.9C-7 1.6 -8.4 -0.1 -8.8 -2.2C-9.2 -4.3 -8.6 -7 -7 -7.6C-5.4 -8.3 -2.7 -7.1 -0.4 -6.7C2 -6.3 3.9 -6.7 5.8 -6Z" fill="#9db9bc"></path></g><g transform="translate(287 25)"><path d="M3.4 -4C4.3 -3.2 4.9 -2.1 5 -1C5.1 0.2 4.7 1.3 3.9 1.9C3.1 2.4 2 2.4 0.8 3.3C-0.4 4.2 -1.7 6.1 -2.7 6.2C-3.7 6.4 -4.6 4.7 -4.8 3.3C-5 1.8 -4.7 0.5 -4.1 -0.3C-3.5 -1.2 -2.6 -1.7 -1.9 -2.5C-1.2 -3.4 -0.6 -4.6 0.3 -4.9C1.2 -5.3 2.4 -4.8 3.4 -4Z" fill="#9db9bc"></path></g><g transform="translate(291 878)"><path d="M4 -3.7C5.9 -3.2 8.6 -2.6 9.3 -1.2C10.1 0.2 9 2.3 7.3 3.4C5.7 4.4 3.6 4.4 2 4.4C0.4 4.5 -0.7 4.7 -1.8 4.5C-3 4.3 -4.2 3.7 -5.7 2.6C-7.2 1.4 -9.1 -0.3 -9.8 -2.7C-10.6 -5.1 -10.1 -8.3 -8.2 -8.7C-6.4 -9.2 -3.2 -6.9 -1.1 -5.7C1.1 -4.4 2.2 -4.1 4 -3.7Z" fill="#9db9bc"></path></g><g transform="translate(190 508)"><path d="M2.2 -2.3C3.2 -1.7 4.8 -1.4 5.7 -0.4C6.6 0.6 6.9 2.4 6.3 3.8C5.7 5.2 4.2 6.3 2.5 7C0.8 7.7 -1.1 8 -2.6 7.4C-4.1 6.7 -5.1 5.1 -5.8 3.5C-6.6 1.9 -7.1 0.3 -6.4 -0.7C-5.8 -1.7 -3.9 -2.1 -2.7 -2.7C-1.4 -3.2 -0.7 -3.8 -0.1 -3.7C0.6 -3.6 1.1 -2.8 2.2 -2.3Z" fill="#9db9bc"></path></g><g transform="translate(241 728)"><path d="M2 -2.4C2.8 -1.8 3.7 -1.3 3.9 -0.6C4.1 0.1 3.6 0.9 3.1 1.8C2.6 2.7 2.1 3.5 1.5 3.5C0.9 3.5 0.2 2.5 -0.4 1.9C-0.9 1.3 -1.2 1.1 -1.7 0.8C-2.2 0.4 -2.8 -0.1 -2.7 -0.5C-2.7 -1 -2.1 -1.3 -1.5 -2C-0.9 -2.7 -0.5 -3.8 0.1 -3.9C0.6 -4 1.3 -3.1 2 -2.4Z" fill="#9db9bc"></path></g><g transform="translate(384 488)"><path d="M1.6 -1.9C2.3 -1.4 3.1 -1 3.4 -0.5C3.7 0.1 3.4 0.9 2.8 1.3C2.2 1.7 1.4 1.5 0.7 1.7C0 1.9 -0.5 2.3 -0.8 2.2C-1.1 2.1 -1.3 1.5 -1.6 0.9C-1.9 0.4 -2.3 -0.1 -2.6 -0.8C-2.9 -1.5 -2.9 -2.6 -2.5 -3.1C-2 -3.6 -1 -3.7 -0.3 -3.4C0.5 -3.1 1 -2.4 1.6 -1.9Z" fill="#9db9bc"></path></g><g transform="translate(111 247)"><path d="M0.9 -1.4C1.2 -0.8 1.4 -0.6 1.6 -0.2C1.8 0.2 1.9 0.7 1.8 1.3C1.8 1.9 1.5 2.6 1 2.7C0.5 2.9 -0.1 2.5 -0.8 2.2C-1.6 2 -2.4 1.9 -2.7 1.5C-3.1 1 -3.1 0.2 -2.9 -0.4C-2.7 -1.1 -2.3 -1.7 -1.8 -2.3C-1.3 -2.9 -0.7 -3.4 -0.2 -3.2C0.3 -3 0.6 -2 0.9 -1.4Z" fill="#9db9bc"></path></g><g transform="translate(413 276)"><path d="M10.9 -13.9C12.5 -11.7 10.9 -6.7 11.7 -2C12.6 2.6 15.8 6.8 15.6 10.6C15.3 14.4 11.5 17.8 7.2 19C2.9 20.3 -1.9 19.4 -5.9 17.5C-10 15.5 -13.2 12.5 -13.5 9.2C-13.8 5.8 -11.3 2.1 -10.8 -2.2C-10.3 -6.5 -12 -11.4 -10.6 -13.6C-9.1 -15.9 -4.6 -15.4 0.1 -15.5C4.7 -15.6 9.4 -16.2 10.9 -13.9Z" fill="#9db9bc"></path></g></g></svg>