<svg id="visual" viewBox="0 0 450 900" width="450" height="900" xmlns="http://www.w3.org/2000/svg" xmlns:xlink="http://www.w3.org/1999/xlink" version="1.1"><rect x="0" y="0" width="450" height="900" fill="#8ba7a9"></rect><defs><linearGradient id="grad1_0" x1="0%" y1="100%" x2="100%" y2="0%"><stop offset="30%" stop-color="#8ba7a9" stop-opacity="1"></stop><stop offset="70%" stop-color="#8ba7a9" stop-opacity="1"></stop></linearGradient></defs><defs><linearGradient id="grad2_0" x1="0%" y1="100%" x2="100%" y2="0%"><stop offset="30%" stop-color="#8ba7a9" stop-opacity="1"></stop><stop offset="70%" stop-color="#8ba7a9" stop-opacity="1"></stop></linearGradient></defs><g transform="translate(450, 900)"><path d="M-382.5 0C-380.5 -52.7 -378.4 -105.4 -353.4 -146.4C-328.3 -187.3 -280.3 -216.5 -239 -239C-197.7 -261.5 -163.1 -277.4 -124.4 -300.3C-85.7 -323.1 -42.8 -352.8 0 -382.5L0 0Z" fill="#89a2a4"></path></g><g transform="translate(0, 0)"><path d="M382.5 0C377.2 49.7 371.8 99.5 353.4 146.4C335 193.3 303.4 237.3 263.8 263.8C224.1 290.2 176.2 299.1 130.9 316C85.6 332.8 42.8 357.7 0 382.5L0 0Z" fill="#89a2a4"></path></g></svg>